<svg xmlns="http://www.w3.org/2000/svg" xmlns:xlink="http://www.w3.org/1999/xlink" version="1.1" x="0px" y="0px" width="32px" height="32px" viewBox="147 84.5 32 32" enable-background="new 147 84.5 32 32" xml:space="preserve"><style>.style0{fill:	#FFFFFF;}</style><path d="M163 84.5c-8.837 0-16 7.163-16 16s7.163 16 16 16s16-7.163 16-16S171.837 84.5 163 84.5z M163 114 c-7.456 0-13.5-6.044-13.5-13.5S155.544 87 163 87s13.5 6 13.5 13.5S170.456 114 163 114z" class="style0"/><polygon points="171,99.5 158.6,99.5 161,96.9 159.7,95.5 155,100.5 159.7,105.5 161,104.1 158.6,101.5 171,101.5" class="style0"/></svg>