<svg xmlns="http://www.w3.org/2000/svg" xmlns:xlink="http://www.w3.org/1999/xlink" version="1.1" x="0px" y="0px" width="48px" height="42px" viewBox="15 18 48 42" enable-background="new 15 18 48 42" xml:space="preserve"><style>.style0{fill:	#FFFFFF;}</style><path d="M49.435 46.49c2.306 0 4.2 1.9 4.2 4.157s-1.868 4.156-4.174 4.156c-2.305 0-4.174-1.86-4.174-4.156 S47.13 46.5 49.4 46.49z M49.435 44.412c-3.457 0-6.261 2.792-6.261 6.235s2.804 6.2 6.3 6.2 c3.458 0 6.261-2.791 6.261-6.234S52.893 44.4 49.4 44.412z M49.435 41.295c5.188 0 9.4 4.2 9.4 9.4 c0 5.166-4.204 9.353-9.392 9.353c-5.187 0-9.391-4.187-9.391-9.353C40.044 45.5 44.2 41.3 49.4 41.295z M27.218 21.3 l11.564 3.291L48.695 18L63 21.55v28.058l-3.301-0.839c-0.417-2.273-1.574-4.286-3.216-5.784l2.343 0.647V25.708l-9.392-2.598 v17.146l-1.043 0.05V23.109L39 29.344V47.53l0.616-0.409C39.218 48.2 39 49.4 39 50.647c0 0.6 0 1.1 0.1 1.7 l-0.353 0.233l-11.564-3.292L15 54.284V26.227L27.218 21.291z M26.478 44.672V26.747l-7.304 2.857V47.53L26.478 44.672z M27.522 26.486v17.926l10.435 2.598V29.604L27.522 26.486z" class="style0"/></svg>