<svg xmlns="http://www.w3.org/2000/svg" xmlns:xlink="http://www.w3.org/1999/xlink" version="1.1" x="0px" y="0px" width="32px" height="32px" viewBox="56.487 52.98 32 32" enable-background="new 56.487 52.98 32 32" xml:space="preserve"><path d="M72.487 52.98c-8.837 0-16 7.163-16 16s7.163 16 16 16s16-7.163 16-16S81.323 53 72.5 52.98z M72.487 82.5 c-7.456 0-13.5-6.044-13.5-13.5s6.044-13.5 13.5-13.5s13.5 6 13.5 13.5S79.943 82.5 72.5 82.48z"/><path d="M76.283 66.531H73.5V64.5c0-0.623 0.645-0.768 0.945-0.768c0.299 0 1.8 0 1.8 0v-2.741l-2.061-0.011 c-2.812 0-3.453 2.044-3.453 3.354v2.196h-2.04v2.824h2.04c0 3.6 0 7.6 0 7.625H73.5c0 0 0-4.04 0-7.625h2.354L76.283 66.531z"/></svg>