<?xml version="1.0" encoding="utf-8"?>
<!-- Generator: Adobe Illustrator 16.0.2, SVG Export Plug-In . SVG Version: 6.00 Build 0)  -->
<!DOCTYPE svg PUBLIC "-//W3C//DTD SVG 1.1//EN" "http://www.w3.org/Graphics/SVG/1.1/DTD/svg11.dtd">
<svg version="1.1" id="Layer_1" xmlns="http://www.w3.org/2000/svg" xmlns:xlink="http://www.w3.org/1999/xlink" x="0px" y="0px"
	 width="32px" height="32px" viewBox="147 84.5 32 32" enable-background="new 147 84.5 32 32" xml:space="preserve">
<path fill="#FFFFFF" d="M163,84.5c-8.837,0-16,7.163-16,16s7.163,16,16,16s16-7.163,16-16S171.837,84.5,163,84.5z M163,114
	c-7.456,0-13.5-6.044-13.5-13.5S155.544,87,163,87s13.5,6.044,13.5,13.5S170.456,114,163,114z"/>
<polygon fill="#FFFFFF" points="170.27,99.53 167.03,99.53 167.03,105.5 158.97,105.5 158.97,99.53 155.74,99.53 155.73,99.52 
	162.99,92.25 "/>
</svg>
