<svg xmlns="http://www.w3.org/2000/svg" xmlns:xlink="http://www.w3.org/1999/xlink" version="1.1" x="0px" y="0px" width="32px" height="32px" viewBox="240 480 32 32" enable-background="new 240 480 32 32" xml:space="preserve">
<style>
	.style0{
		fill:	#FFFFFF;
	}
</style><path d="M256 480c-8.837 0-16 7.163-16 16s7.163 16 16 16s16-7.163 16-16S264.837 480 256 480z M256 509.5 c-7.456 0-13.5-6.044-13.5-13.5s6.044-13.5 13.5-13.5s13.5 6 13.5 13.5S263.456 509.5 256 509.5z" class="style0"/>
<g>
	<g>
		<path d="M248.006 503.993h3v-12h-3V503.993z M260.006 491.993c-2.568 0.043-3.832 1.915-4 2v-2h-3v12h3v-7 c0-0.257 0.633-2.313 3-2c1.271 0.1 2 1.8 2 2v7l2.988 0.014v-8.308C263.889 494.5 263.3 492 260 491.993z M249.506 487.993c-0.828 0-1.5 0.671-1.5 1.5s0.672 1.5 1.5 1.5s1.5-0.671 1.5-1.5S250.334 488 249.5 487.993z" class="style0"/>
	</g>
</g>
</svg>
