<?xml version="1.0" encoding="utf-8"?>
<!-- Generator: Adobe Illustrator 16.0.2, SVG Export Plug-In . SVG Version: 6.00 Build 0)  -->
<!DOCTYPE svg PUBLIC "-//W3C//DTD SVG 1.1//EN" "http://www.w3.org/Graphics/SVG/1.1/DTD/svg11.dtd">
<svg version="1.1" id="Layer_1" xmlns="http://www.w3.org/2000/svg" xmlns:xlink="http://www.w3.org/1999/xlink" x="0px" y="0px"
	 width="16px" height="14px" viewBox="248 354 16 14" enable-background="new 248 354 16 14" xml:space="preserve">
<path fill="#14A3E0" d="M264,355.683c-0.271,0.16-1.078,0.479-1.833,0.56c0.484-0.28,1.2-1.2,1.376-1.931
	c-0.464,0.319-1.532,0.785-2.059,0.785c0,0,0,0.002,0.001,0.003c-0.603-0.678-1.448-1.1-2.388-1.1c-1.821,0-3.3,1.592-3.3,3.555
	c0,0.272,0.03,0.537,0.085,0.792h-0.001c-2.473-0.068-5.363-1.403-6.992-3.688c-1,1.866-0.135,3.94,1.001,4.696
	c-0.388,0.032-1.104-0.048-1.441-0.4c-0.023,1.237,0.53,2.878,2.546,3.473c-0.389,0.226-1.074,0.161-1.374,0.111
	c0.105,1.047,1.465,2.414,2.95,2.414c-0.529,0.658-2.336,1.856-4.571,1.475c1.519,0.996,3.289,1.572,5.163,1.572
	c5.326,0,9.46-4.647,9.238-10.381c0-0.007-0.002-0.014-0.002-0.02c0-0.016,0.002-0.031,0.002-0.045c0-0.018-0.002-0.035-0.002-0.054
	C262.883,357.146,263.533,356.515,264,355.683z"/>
</svg>
