<svg xmlns="http://www.w3.org/2000/svg" xmlns:xlink="http://www.w3.org/1999/xlink" version="1.1" x="0px" y="0px" width="48px" height="38px" viewBox="16.952 19.791 48 38" enable-background="new 16.952 19.791 48 38" xml:space="preserve"><style>.style0{fill:	#FFFFFF;}</style><path d="M22.666 45.656c5.056 1.5 14.3 2 17.4 5.863V29.912c-3.115-3.835-12.325-4.4-17.381-5.866V45.656z M22.666 20.137v-0.315c5.056 1.5 14.3 2 17.4 5.866l0.905 0.256l0.904-0.287c3.115-3.835 12.325-4.401 17.381-5.866 v0.315c1.404 0.4 2.3 0.8 2.3 0.778v3.373l3.429-1.288v27.153c0 0-20.382 1.406-24 7.639v0.03 c-3.619-6.231-24-7.637-24-7.637V23l3.429 1.288v-3.374C20.381 20.9 21.3 20.6 22.7 20.137z M24.38 42.852v-3.511 c4.308 1 10.2 1.6 13.7 3.785v3.51C34.621 44.5 28.7 43.8 24.4 42.852z M24.38 36.796v-3.51 c4.308 1 10.2 1.6 13.7 3.785v3.51C34.621 38.4 28.7 37.8 24.4 36.796z M24.38 30.625v-3.511 c4.308 1 10.2 1.6 13.7 3.785v3.51C34.621 32.2 28.7 31.6 24.4 30.625z M59.237 45.625V24.014 c-5.056 1.466-14.266 2.031-17.381 5.866v21.609C44.972 47.7 54.2 47.1 59.2 45.625z M57.523 42.8 c-4.309 0.964-10.241 1.612-13.714 3.784v-3.511c3.473-2.171 9.405-2.819 13.714-3.785V42.82z M57.523 36.8 c-4.309 0.964-10.241 1.612-13.714 3.785v-3.512c3.473-2.171 9.405-2.819 13.714-3.785V36.765z M57.523 30.6 c-4.309 0.965-10.241 1.612-13.714 3.784v-3.51c3.473-2.172 9.405-2.819 13.714-3.785V30.594z" class="style0"/></svg>