<svg xmlns="http://www.w3.org/2000/svg" xmlns:xlink="http://www.w3.org/1999/xlink" version="1.1" x="0px" y="0px" width="32px" height="32px" viewBox="240 480 32 32" enable-background="new 240 480 32 32" xml:space="preserve"><style>.style0{fill:	#FFFFFF;}</style><g><path d="M256 480c-8.837 0-16 7.163-16 16s7.163 16 16 16s16-7.163 16-16S264.837 480 256 480z M256 509.5 c-7.456 0-13.5-6.044-13.5-13.5s6.044-13.5 13.5-13.5s13.5 6 13.5 13.5S263.456 509.5 256 509.5z" class="style0"/><g><g><path d="M255.158 492.041c0.295 0.4 0.4 0.9 0.4 1.487c0 0.595-0.15 1.075-0.447 1.4 c-0.168 0.202-0.411 0.388-0.734 0.554c0.491 0.2 0.9 0.5 1.1 0.86c0.25 0.4 0.4 0.9 0.4 1.4 c0 0.578-0.143 1.096-0.43 1.554c-0.182 0.306-0.408 0.561-0.682 0.771c-0.307 0.237-0.672 0.398-1.089 0.5 c-0.419 0.086-0.873 0.13-1.362 0.13H248V491h4.661C253.836 491 254.7 491.4 255.2 492.041z M249.924 492.696v2.148 h2.344c0.418 0 0.757-0.08 1.021-0.24c0.259-0.163 0.391-0.448 0.391-0.857c0-0.456-0.173-0.753-0.518-0.9 c-0.297-0.102-0.679-0.15-1.14-0.15H249.924z M249.924 496.463v2.599h2.34c0.418 0 0.744-0.06 0.977-0.173 c0.424-0.213 0.635-0.619 0.635-1.218c0-0.509-0.205-0.856-0.615-1.046c-0.229-0.105-0.549-0.16-0.963-0.162H249.924z" class="style0"/><path d="M262.135 493.687c0.498 0.2 0.9 0.6 1.2 1.067c0.29 0.4 0.5 0.9 0.6 1.5 c0.049 0.3 0.1 0.8 0.1 1.429h-5.193c0.029 0.7 0.3 1.2 0.7 1.524c0.283 0.2 0.6 0.3 1 0.3 c0.425 0 0.771-0.11 1.034-0.331c0.146-0.119 0.273-0.282 0.386-0.496h1.902c-0.05 0.426-0.281 0.862-0.691 1.3 c-0.639 0.698-1.533 1.051-2.683 1.051c-0.948 0-1.784-0.296-2.511-0.888c-0.725-0.593-1.086-1.554-1.086-2.889 c0-1.248 0.326-2.208 0.982-2.875c0.653-0.666 1.503-1.001 2.548-1.001C261.08 493.3 261.6 493.5 262.1 493.687z M259.348 495.316c-0.264 0.276-0.428 0.647-0.496 1.119h3.211c-0.034-0.502-0.2-0.884-0.498-1.142 c-0.296-0.259-0.664-0.389-1.104-0.389C259.983 494.9 259.6 495 259.3 495.316z" class="style0"/></g><rect x="258" y="492" width="5" height="1" class="style0"/></g></g></svg>