<svg xmlns="http://www.w3.org/2000/svg" xmlns:xlink="http://www.w3.org/1999/xlink" version="1.1" x="0px" y="0px" width="32px" height="32px" viewBox="240 480 32 32" enable-background="new 240 480 32 32" xml:space="preserve"><path d="M256 480c-8.837 0-16 7.163-16 16s7.163 16 16 16s16-7.163 16-16S264.837 480 256 480z M256 509.5 c-7.456 0-13.5-6.044-13.5-13.5s6.044-13.5 13.5-13.5s13.5 6 13.5 13.5S263.456 509.5 256 509.5z"/><g><g><path d="M257.379 488.496c0.545-0.306 0.783-0.504 0.783-0.504h-5.205c-1.043 0-3.939 1.186-3.939 3.951s3.004 3.4 4.1 3.3 c-0.611 0.746-0.088 1.4 0.2 1.776c0.326 0.4 0.3 0.461-0.131 0.461c-0.393 0-5.227 0.053-5.227 3.5 s6.424 3.7 8.5 1.846s1.654-4.438 0.021-5.6c-1.633-1.163-2.242-1.712-1.197-2.634s1.873-1.668 1.873-3.381 s-1.416-2.589-1.416-2.589S256.834 488.8 257.4 488.496z M256.573 500.833c0 1.493-1.268 2.217-3.42 2.2 c-2.154 0-3.309-1.075-3.309-2.678c0-1.604 1.568-2.394 4.508-2.394C255.149 498.6 256.6 499.3 256.6 500.833z M253.459 494.576c-2.592 0-3.768-6.056-0.719-6.056C255.114 488.4 256.9 494.6 253.5 494.576z M262.047 490.002v-1.97 h-1.018v1.97h-1.992v1.022h1.992v1.974h1.018v-1.974h1.959v-1.022H262.047z"/></g></g></svg>