<svg xmlns="http://www.w3.org/2000/svg" xmlns:xlink="http://www.w3.org/1999/xlink" version="1.1" x="0px" y="0px" width="128px" height="111px" viewBox="141.709 -29.365 128 111" enable-background="new 141.709 -29.365 128 111" xml:space="preserve"><style>.style0{fill:	#FFFFFF;}</style><path d="M158.775-12.288h110.934v93.923H158.775V-12.288z M167.309-3.75v76.844h93.869V-3.75H167.309z M175.842 68.828l17.067-17.078l8.532 8.537l34.136-34.152l12.8 12.807l8.532-8.536v38.423H175.842z M192.909 4.8 c0 9.43-7.642 17.076-17.067 17.076c-1.473 0-2.902-0.186-4.266-0.538V0.52h20.795C192.723 1.9 192.9 3.3 192.9 4.79z M261.178-16.558H154.509v89.651h-4.267v-89.651v-4.268h110.936V-16.558z M252.641-25.095H145.977v89.652h-4.268v-89.652v-4.27 h110.932V-25.095z" class="style0"/></svg>