<svg xmlns="http://www.w3.org/2000/svg" xmlns:xlink="http://www.w3.org/1999/xlink" version="1.1" x="0px" y="0px" width="32px" height="32px" viewBox="240 480 32 32" enable-background="new 240 480 32 32" xml:space="preserve"><path d="M256 480c-8.837 0-16 7.163-16 16s7.163 16 16 16s16-7.163 16-16S264.837 480 256 480z M256 509.5 c-7.456 0-13.5-6.044-13.5-13.5s6.044-13.5 13.5-13.5s13.5 6 13.5 13.5S263.456 509.5 256 509.5z"/><path d="M264 490.683c-0.27 0.16-1.078 0.479-1.832 0.56c0.483-0.28 1.199-1.2 1.376-1.931c-0.465 0.319-1.532 0.785-2.06 0.8 c0 0 0 0 0 0.003c-0.602-0.678-1.447-1.1-2.387-1.1c-1.822 0-3.301 1.592-3.301 3.555c0 0.3 0 0.5 0.1 0.8 h-0.001c-2.473-0.068-5.363-1.403-6.992-3.688c-1 1.866-0.135 3.9 1 4.696c-0.388 0.032-1.104-0.048-1.441-0.4 c-0.023 1.2 0.5 2.9 2.5 3.473c-0.389 0.226-1.074 0.161-1.374 0.111c0.105 1 1.5 2.4 3 2.4 c-0.529 0.658-2.336 1.856-4.571 1.475c1.519 1 3.3 1.6 5.2 1.572c5.325 0 9.461-4.647 9.238-10.381 c0-0.007-0.002-0.014-0.002-0.02c0-0.016 0.002-0.031 0.002-0.045c0-0.018-0.002-0.035-0.002-0.054 C262.884 492.1 263.5 491.5 264 490.683z"/></svg>